<svg width="1000" height="268" viewBox="0 0 1000 268" fill="none" xmlns="http://www.w3.org/2000/svg">
<path d="M739.128 1.41196C739.128 2.189 739.369 2.67586 739.663 2.49387C739.958 2.31189 740.566 3.04253 741.015 4.11753C741.489 5.25156 742.22 6.07209 742.756 6.07209C743.486 6.07209 743.545 6.23448 743.037 6.84654C742.543 7.44146 742.56 7.67658 743.107 7.86091C743.668 8.04966 743.644 8.31589 742.992 9.10856C742.361 9.87645 742.329 10.1715 742.854 10.3485C743.234 10.4762 743.544 10.8232 743.544 11.1194C743.544 11.4157 743.299 11.5063 742.999 11.3208C742.686 11.1274 742.593 11.349 742.782 11.8403C742.963 12.3115 742.827 12.6971 742.48 12.6971C742.02 12.6971 742.01 12.9967 742.44 13.8012C742.915 14.6881 742.86 14.9054 742.162 14.9054C741.459 14.9054 741.425 15.0474 741.984 15.6455C742.699 16.4106 744.087 15.7265 743.906 14.6984C743.859 14.4327 744.112 14.108 744.467 13.9768C744.893 13.8198 745.005 14.1564 744.794 14.9602C744.619 15.6323 744.7 16.0503 744.976 15.889C745.251 15.7276 745.974 15.7784 746.581 16.0018C747.457 16.3238 747.199 16.491 745.339 16.8093C743.876 17.0597 742.992 17.5042 742.992 17.9904C742.992 18.4192 742.51 18.77 741.92 18.77C741.33 18.77 740.507 19.2552 740.092 19.8482C739.347 20.9114 736.535 22.3623 735.623 22.1536C735.366 22.0946 733.751 22.4007 732.035 22.8337C730.319 23.2668 727.361 23.7963 725.463 24.0103C723.565 24.2243 721.873 24.6235 721.704 24.8972C721.535 25.171 720.852 25.4005 720.186 25.4073C719.521 25.4143 717.486 26.1539 715.664 27.0512C713.843 27.9485 711.932 28.6883 711.418 28.6951C710.905 28.7021 710.331 28.9559 710.144 29.2595C709.956 29.5632 710.083 29.8116 710.425 29.8116C711.191 29.8116 710.915 32.2807 710.144 32.3344C709.84 32.3555 708.502 32.6846 707.171 33.0657C705.84 33.4469 704.144 33.6065 703.403 33.4205C702.662 33.2346 701.267 33.3257 700.303 33.6231C699.339 33.9205 697.164 34.4352 695.469 34.7668C690.819 35.6767 688.336 36.4369 688.336 36.9504C688.336 37.4825 716.658 37.1112 723.67 36.4871C727.364 36.1583 728.773 36.2481 730.295 36.9096C731.357 37.3717 732.351 37.7856 732.503 37.8295C732.655 37.8734 733.505 38.2092 734.392 38.5757C735.28 38.9422 736.398 39.0895 736.877 38.903C737.356 38.7164 744.704 38.4746 753.206 38.3656C761.708 38.2566 769.782 37.92 771.149 37.6177C772.515 37.3153 776.61 36.7795 780.248 36.427C783.887 36.0745 787.339 35.5316 787.92 35.2207C788.501 34.9098 790.19 34.7719 791.673 34.9144C793.156 35.057 794.503 34.9568 794.667 34.6919C794.831 34.427 795.196 34.3532 795.478 34.5279C795.761 34.7026 795.992 34.5825 795.992 34.2609C795.992 33.9393 796.179 33.7255 796.406 33.7858C797.325 34.0288 802.065 33.0243 802.065 32.5867C802.065 32.0479 806.236 31.1522 807.813 31.3523C808.393 31.4259 809.334 30.9852 809.904 30.3729C810.475 29.7605 811.367 29.2302 811.886 29.1943C812.406 29.1585 814.321 29.0755 816.143 29.0101C817.965 28.9447 820.45 28.6042 821.664 28.2536C822.879 27.903 824.811 27.4766 825.958 27.3058C827.105 27.1351 827.909 26.7774 827.744 26.511C827.23 25.6795 828.457 25.4617 838.049 24.6817C838.559 24.6403 838.931 24.371 838.877 24.0834C838.823 23.7958 839.276 23.4142 839.883 23.2355C840.49 23.0568 841.614 22.4839 842.381 21.9624C843.384 21.2803 845.475 20.9147 849.834 20.6591C853.167 20.4638 856.467 20.33 857.169 20.3617C857.871 20.3934 859.208 20.0249 860.141 19.5427C861.104 19.0447 861.984 18.8846 862.177 19.1723C862.653 19.8784 864.596 20.5567 864.171 19.8678C863.722 19.1417 864.259 19.1789 865.729 19.9757C868.696 21.5839 882.741 20.3615 884.207 18.3676C884.66 17.7503 884.71 17.3339 884.345 17.2121C884.03 17.1074 883.773 16.8018 883.773 16.533C883.773 16.2642 884.121 16.1776 884.546 16.3406C884.97 16.5036 885.482 16.3716 885.682 16.0472C886.218 15.181 882.909 15.3067 881.124 16.2204C880.304 16.6399 878.515 17.1661 877.148 17.3896C875.782 17.6131 874.229 17.8767 873.698 17.9753C873.166 18.0739 872.732 17.8291 872.732 17.4314C872.732 16.9198 872.045 16.762 870.385 16.892C868.572 17.034 868.261 16.9471 869.017 16.5087C869.555 16.1969 869.87 15.7406 869.718 15.4947C869.391 14.9645 872.477 14.4313 878.453 13.9858C881.808 13.7357 882.903 13.8347 883.275 14.4218C883.624 14.9728 883.759 14.9919 883.765 14.4913C883.777 13.4749 887.096 13.6391 888.285 14.7149C888.84 15.2174 889.294 15.3936 889.294 15.1063C889.294 14.7895 891.086 14.7333 893.849 14.9636C896.354 15.1723 900.267 15.48 902.544 15.6473C904.821 15.8146 907.501 16.2403 908.498 16.5933C909.496 16.9463 910.93 17.1169 911.686 16.9724C912.442 16.8279 913.217 16.9634 913.408 17.2731C913.622 17.6194 913.478 17.6644 913.034 17.3898C912.584 17.1119 912.445 17.1599 912.666 17.5168C913.081 18.1895 915.714 18.7989 918.831 18.9435C920.669 19.0288 921.049 19.2448 921.099 20.2322C921.152 21.2926 920.772 21.4633 917.51 21.8414C915.504 22.074 913.241 22.2105 912.482 22.1448L911.101 22.0254L912.566 22.8216C915.106 24.2024 917.583 24.785 922.419 25.1392C925 25.3283 928.727 25.8887 930.7 26.3846C935.24 27.5251 950.991 27.6126 951.678 26.5011C951.915 26.1185 952.4 25.9862 952.757 26.2069C953.68 26.777 963.84 26.9689 963.494 26.4098C963.171 25.8867 963.253 25.8779 970.475 25.6587C975.572 25.5039 977.724 25.3153 985.356 24.3541C988.837 23.9157 990.871 24.1668 992.86 25.28C993.693 25.7461 993.514 26.0113 991.508 27.2777C989.89 28.2991 987.913 28.8999 984.929 29.2771C979.837 29.9208 974.979 30.7317 971.479 31.5221C969.385 31.9949 968.967 32.2871 969.187 33.126C969.344 33.7282 969.774 34.0292 970.229 33.8549C970.654 33.6917 971.002 33.833 971.002 34.1692C971.002 34.5053 970.568 34.7841 970.036 34.7888C969.21 34.7958 969.19 34.875 969.898 35.3324C970.422 35.6709 970.479 35.8707 970.053 35.8761C969.682 35.8811 969.524 36.2572 969.7 36.7156C969.922 37.294 969.371 37.8347 967.888 38.4936L965.758 39.4405L971.152 39.7733C974.118 39.9563 978.031 40.0809 979.847 40.0502C981.663 40.0194 983.148 40.0253 983.148 40.0633C983.148 40.1012 982.651 40.7052 982.044 41.4054C981.437 42.1056 980.94 42.5105 980.94 42.3053C980.94 42.1 980.38 42.2983 979.697 42.7466C979.013 43.1946 976.612 43.8469 974.361 44.1962C972.11 44.5455 969.284 45.1784 968.081 45.6027C966.879 46.027 964.994 46.383 963.894 46.3938C960.819 46.424 953.074 48.4378 955.314 48.6247C955.592 48.6479 956.317 48.7812 956.924 48.921C957.531 49.0607 958.332 49.2416 958.702 49.3228C959.966 49.5998 960.046 50.1371 958.88 50.5072C958.24 50.7103 957.067 51.4783 956.274 52.2138C955.48 52.9494 954.276 53.5512 953.599 53.5512C952.921 53.5512 952.083 53.8927 951.737 54.3101C951.219 54.9338 951.674 55.1337 954.292 55.4318C956.043 55.6313 958.222 55.9148 959.133 56.0619C961.3 56.4117 969.923 56.3612 970.516 55.9951C971.315 55.5012 977.627 55.2683 977.627 55.7327C977.627 55.9767 977.255 56.4857 976.799 56.8637C976.344 57.2417 975.971 57.8104 975.971 58.1274C975.971 58.4445 976.134 58.5405 976.334 58.3407C976.534 58.1409 977.031 58.2542 977.438 58.5923C977.849 58.9328 978.179 58.9717 978.179 58.6795C978.179 58.3893 978.552 58.1519 979.007 58.1519C980.333 58.1519 979.97 58.7431 978.148 59.5496C976.099 60.4566 976.392 60.837 979.695 61.5564C982.709 62.2126 983.283 63.2411 981.123 64.1119C978.887 65.0131 968.382 66.1828 962.377 66.1992C959.562 66.2072 956.6 66.3786 955.795 66.5807L954.33 66.9483L955.903 68.2351C956.768 68.9428 957.896 69.5308 958.41 69.5417C959.718 69.5695 960.116 70.4477 959.414 71.7592C958.673 73.1441 953.871 75.6344 951.941 75.6344C951.128 75.6344 950.657 75.8727 950.851 76.1865C951.039 76.4902 951.648 76.7386 952.205 76.7386C953.14 76.7386 954.18 78.1169 953.975 79.085C953.767 80.069 962.526 78.9685 963.26 77.9185C963.819 77.1166 977.917 75.0209 979.303 75.5336L980.623 76.0218L979.339 76.7089C978.633 77.0868 974.046 78.0643 969.146 78.8812C960.179 80.376 957.997 81.4313 963.873 81.4313C965.678 81.4313 967.339 81.7467 967.879 82.192C968.646 82.8245 969.708 82.842 974.18 82.2957C982.405 81.2913 987.185 80.6014 988.306 80.257C989.048 80.0287 989.272 80.1924 989.134 80.8637C988.933 81.8421 987.225 82.99 984.547 83.9463C982.242 84.7695 983.675 85.4952 986.622 84.9974C987.9 84.7815 990.063 84.4299 991.429 84.216L993.914 83.8271L991.843 85.8111C990.705 86.9023 989.773 87.8839 989.773 87.9924C989.773 88.1009 991.314 88.364 993.197 88.577C997.648 89.0807 1000.03 90.3287 1000 92.1414C999.984 93.0973 996.412 94.3797 993.089 94.6229C991.721 94.723 988.614 95.1996 986.185 95.6821C983.755 96.1645 980.029 96.671 977.903 96.8076C975.777 96.9442 972.547 97.3177 970.726 97.6376C959.413 99.624 956.867 100.113 956.379 100.393C956.08 100.564 956.949 100.976 958.312 101.308C959.683 101.642 960.789 102.235 960.789 102.636C960.789 103.565 955.224 105.583 950.174 106.486C947.718 106.925 945.9 107.578 945.305 108.236C944.772 108.824 942.924 109.566 941.096 109.926C936.947 110.742 937.059 111.516 941.567 113.182C942.533 113.539 943.212 114.119 943.075 114.47C942.764 115.269 940.205 116.488 938.839 116.488C938.274 116.488 937.966 116.737 938.153 117.041C938.341 117.344 940.343 117.593 942.603 117.593C946.325 117.593 947.82 118.157 946.021 118.883C944.413 119.532 952.47 119.181 956.449 118.429C961.405 117.492 964.101 117.884 964.101 119.541C964.101 120.305 962.659 121.309 958.682 123.311C954.936 125.198 953.487 126.185 953.99 126.509C954.943 127.125 954.002 127.755 950.299 128.978C945.073 130.704 940.927 133.598 941.471 135.139C941.843 136.192 939.806 136.766 931.39 137.981C927.206 138.585 923.017 139.461 922.08 139.929C921.143 140.396 919.159 140.924 917.671 141.103C913.569 141.594 905.719 143.58 904.492 144.437C903.893 144.855 902.65 145.214 901.731 145.236C900.812 145.257 899.563 145.488 898.956 145.749C898.076 146.127 898.301 146.24 900.06 146.305C904.765 146.478 907.262 146.942 907.886 147.759C908.312 148.317 908.978 148.488 909.819 148.257C910.922 147.954 910.965 147.99 910.125 148.516C909.588 148.852 908.719 149.057 908.193 148.97C907.667 148.884 906.903 149.022 906.494 149.278C906.055 149.554 905.195 149.446 904.39 149.015C903.329 148.447 902.798 148.43 901.984 148.938C901.323 149.351 900.816 149.392 900.605 149.05C900.421 148.753 898.857 148.5 897.129 148.49C895.401 148.479 893.366 148.115 892.607 147.681C890.953 146.736 890.398 146.666 890.398 147.405C890.398 147.709 890.786 147.957 891.259 147.957C891.732 147.957 891.984 148.177 891.817 148.446C891.651 148.716 892.035 149.072 892.671 149.238C893.307 149.404 893.719 149.867 893.587 150.267C893.344 151.004 890.871 151.436 883.221 152.078C876.31 152.658 874.388 152.97 874.388 153.512C874.388 153.797 874.761 154.03 875.216 154.03C875.676 154.03 876.044 154.521 876.044 155.134C876.044 155.944 875.676 156.238 874.664 156.238C873.076 156.238 872.805 157.089 874.271 157.472C874.814 157.614 877.609 157.597 880.482 157.435C888.85 156.963 892.197 157.12 893.947 158.067C894.836 158.549 895.723 158.844 895.918 158.724C896.112 158.603 896.169 159.204 896.043 160.059C895.77 161.924 896.546 162.215 902.215 162.371C905.607 162.465 905.871 162.548 904.692 163.159C902.752 164.165 895.637 165.607 891.394 165.856C889.225 165.983 887.177 166.436 886.44 166.952C884.872 168.051 883.927 168.064 882.866 167.004C882.389 166.527 881.06 166.181 879.731 166.188C875.639 166.209 860.373 167.762 858.3 168.367C856.364 168.933 856.305 169.025 856.714 170.835C856.971 171.976 856.913 172.94 856.567 173.287C856.173 173.681 856.19 174.093 856.621 174.612C857.94 176.202 856.262 176.531 848.205 176.263C841.945 176.055 839.992 176.169 838.722 176.816C837.378 177.502 831.319 178.447 827.185 178.616C826.578 178.641 824.839 178.884 823.32 179.155L820.56 179.649L823.044 180.05C824.411 180.271 828.51 180.325 832.154 180.17C835.797 180.016 841.015 179.922 843.747 179.962C846.48 180.003 851.822 179.631 855.617 179.137C863.127 178.158 870.872 177.473 874.206 177.493C875.369 177.5 876.476 177.289 876.667 177.024C876.858 176.759 877.789 176.51 878.737 176.472C879.685 176.433 880.461 176.195 880.461 175.944C880.461 175.693 881.02 175.644 881.703 175.836C882.675 176.11 882.765 176.06 882.117 175.606C881.403 175.106 881.422 175.025 882.255 175.018C882.786 175.013 883.221 174.732 883.221 174.394C883.221 174.016 883.746 174.122 884.582 174.67C886.093 175.66 886.756 175.815 886.296 175.072C886.13 174.803 886.488 174.453 887.092 174.295C887.72 174.131 888.19 174.281 888.19 174.647C888.19 175.016 889.062 175.285 890.26 175.285C891.576 175.285 892.283 175.043 892.201 174.622C892.112 174.165 892.707 174.039 894.11 174.219C896.408 174.513 898.675 175.799 898.688 176.816C898.694 177.251 898.888 177.197 899.232 176.665C899.647 176.023 899.769 176.185 899.775 177.392C899.786 179.383 898.876 181.082 897.799 181.082C897.337 181.082 897.112 181.331 897.299 181.634C897.487 181.938 897.191 182.205 896.642 182.228C894.823 182.305 893.667 182.64 892.437 183.446C891.334 184.169 888.742 183.89 888.742 183.049C888.742 182.897 889.075 182.901 889.482 183.057C889.889 183.214 890.572 182.91 891 182.382C891.671 181.555 891.67 181.488 890.994 181.895C890.391 182.259 890.3 182.134 890.599 181.355C890.831 180.75 890.702 180.162 890.278 179.893C889.222 179.223 888.333 179.349 889.294 180.033C889.917 180.476 889.597 180.549 888.001 180.327C886.829 180.164 885.43 180.313 884.872 180.662C884.108 181.139 883.666 181.129 883.054 180.621C882.402 180.08 882.163 180.14 881.817 180.931C881.582 181.47 881.429 182.097 881.477 182.325C881.525 182.553 881.212 182.739 880.782 182.739C880.352 182.739 879.905 183.023 879.79 183.37C879.674 183.718 878.85 184.079 877.96 184.174C877.069 184.269 876.062 184.727 875.723 185.191C875.384 185.655 874.905 185.852 874.659 185.629C874.413 185.406 874.367 185.658 874.558 186.189C874.985 187.379 873.929 187.49 873.474 186.304C873.184 185.55 873.028 185.559 872.111 186.389C871.132 187.275 871.074 187.269 871.066 186.275C871.059 185.394 870.971 185.358 870.523 186.051C869.725 187.286 869.839 187.555 871.316 187.926C872.254 188.161 872.636 188.616 872.575 189.426C872.477 190.715 870.554 191.679 868.338 191.549C866.273 191.428 864.45 192.138 864.45 193.064C864.45 193.661 863.901 193.836 862.38 193.724C860.154 193.562 856.411 194.183 855.064 194.939C854.396 195.314 854.449 195.412 855.34 195.446C855.948 195.47 857.687 195.606 859.205 195.748C863.9 196.188 870.144 196.174 872.397 195.719C873.943 195.406 874.439 195.459 874.162 195.906C873.925 196.29 874.074 196.415 874.553 196.231C875.007 196.056 875.74 196.562 876.323 197.451C877.034 198.537 877.127 199.032 876.651 199.191C876.204 199.34 876.312 199.669 876.98 200.194C877.888 200.905 877.829 200.949 876.32 200.687C875.409 200.528 874.974 200.545 875.353 200.724C876.752 201.383 875.982 202.062 873.835 202.062C872.441 202.062 871.624 201.807 871.619 201.372C871.613 200.864 871.485 200.879 871.136 201.431C870.837 201.901 870.532 201.971 870.314 201.618C869.943 201.018 869.24 201.065 867.515 201.804C866.923 202.057 865.622 202.281 864.624 202.301C862.336 202.347 861.593 203.718 863.856 203.718C864.751 203.718 865.574 204.077 865.754 204.546C865.968 205.105 865.727 205.374 865.012 205.374C864.43 205.374 863.754 205.685 863.511 206.064C862.878 207.054 860.628 208.226 860.049 207.868C859.779 207.701 859.401 207.817 859.211 208.126C859.02 208.434 858.178 208.687 857.341 208.687C856.503 208.687 854.468 209.09 852.818 209.583C850.215 210.362 849.981 210.54 851.045 210.939C851.719 211.192 856.328 211.365 861.289 211.324C866.249 211.282 870.632 211.45 871.029 211.695C871.44 211.949 871.913 211.878 872.128 211.529C872.572 210.812 889.734 210.268 890.161 210.958C890.311 211.2 890.819 211.251 891.29 211.07C891.87 210.847 891.947 210.618 891.527 210.358C891.186 210.147 891.662 209.975 892.584 209.975C893.507 209.975 894.262 210.212 894.262 210.503C894.262 210.793 894.641 210.716 895.104 210.332C895.567 209.948 896.122 209.81 896.338 210.026C896.554 210.242 896.113 210.888 895.358 211.463L893.986 212.507L895.367 212.242C896.576 212.009 896.61 212.041 895.643 212.501C894.05 213.258 891.434 213.179 889.9 212.329C888.405 211.501 886.533 211.774 886.533 212.82C886.533 213.302 885.443 213.519 882.945 213.533C880.693 213.546 879.356 213.327 879.356 212.947C879.356 212.613 879.046 212.747 878.666 213.245C878.168 213.898 876.673 214.248 873.283 214.504C870.702 214.699 867.022 215.209 865.106 215.637C863.189 216.065 860.829 216.44 859.861 216.469C858.893 216.498 856.859 216.861 855.341 217.276C852.752 217.983 853.044 218.011 860.033 217.728C864.133 217.563 867.859 217.423 868.315 217.418C868.77 217.413 874.484 216.827 881.012 216.115C887.541 215.403 894.658 214.745 896.829 214.652C899 214.559 900.662 214.297 900.523 214.07C900.384 213.842 901.341 213.654 902.649 213.653C903.957 213.653 907.264 213.291 909.997 212.851C914.683 212.097 925.706 211.319 924.209 211.848C923.828 211.983 923.656 212.321 923.828 212.598C924 212.876 923.442 213.115 922.589 213.13C921.736 213.144 920.169 213.628 919.106 214.204C918.043 214.78 916.677 215.483 916.07 215.766C914.074 216.697 881.512 222.084 873.835 222.753C871.558 222.952 864.974 223.607 859.205 224.208C853.436 224.81 845.821 225.543 842.284 225.837C838.746 226.132 834.656 226.733 833.195 227.173C831.276 227.75 830.433 227.801 830.158 227.356C829.809 226.792 824.001 226.946 816.971 227.707C815.908 227.822 812.554 228.071 809.518 228.261C804.069 228.601 795.768 229.746 791.122 230.799C789.81 231.096 788.504 231.195 788.22 231.019C787.935 230.844 784.089 231.248 779.672 231.917C773.137 232.907 771.406 233.007 770.378 232.457C769.344 231.904 768.02 231.997 763.092 232.968C754.889 234.584 744.185 236.686 738.851 237.727C736.422 238.201 732.893 238.942 731.009 239.372C729.124 239.803 726.764 240.154 725.764 240.153C724.764 240.153 722.827 240.508 721.461 240.945C719.158 241.682 714.443 242.5 701.862 244.346C695.398 245.294 694.096 245.513 687.508 246.758C684.471 247.332 679.503 248.212 676.466 248.713C673.43 249.214 670.2 249.747 669.289 249.898C662.843 250.963 661.615 250.944 660.333 249.754C659.641 249.111 659.076 248.304 659.076 247.959C659.076 247.615 658.889 247.362 658.661 247.398C658.434 247.433 657.68 247.433 656.986 247.398C655.931 247.343 655.815 247.164 656.276 246.301C656.952 245.038 656.411 244.357 655.4 245.197C654.261 246.141 654.521 245.291 655.83 243.785C656.517 242.995 657.897 242.287 659.167 242.072C661.021 241.759 661.232 241.586 660.638 240.871C659.748 239.798 660.5 239.731 625.122 244.012C622.693 244.306 618.346 244.665 615.461 244.811C612.576 244.956 607.359 245.337 603.867 245.657C600.375 245.976 595.779 246.336 593.654 246.457C591.528 246.577 588.807 246.933 587.606 247.247C586.405 247.562 581.642 247.834 577.02 247.853C572.399 247.872 568.288 247.998 567.886 248.133C566.892 248.467 553.955 249.145 550.877 249.024C549.516 248.971 548.022 248.583 547.558 248.163C546.517 247.222 543.867 247.127 531.545 247.593C525.88 247.807 520.678 248.293 518.97 248.769C516.741 249.39 513.044 249.56 503.235 249.492C496.184 249.443 484.452 249.591 477.164 249.821C462.396 250.285 463.186 250.29 447.904 249.627C438.01 249.197 432.302 249.179 423.613 249.551C422.094 249.616 421.287 249.782 421.818 249.921C422.35 250.06 422.784 250.433 422.784 250.751C422.784 251.132 421.235 251.219 418.23 251.006C415.725 250.829 408.209 250.433 401.529 250.125C394.849 249.817 386.278 249.311 382.482 248.999C367.234 247.748 361.418 247.307 353.498 246.801C333.691 245.537 323.25 245.033 312.368 244.816C307.358 244.717 301.147 244.466 298.566 244.259C295.985 244.052 292.134 243.905 290.009 243.932C287.883 243.959 283.66 243.738 280.623 243.439C277.587 243.14 267.753 242.787 258.77 242.653C249.787 242.519 241.341 242.167 239.999 241.872C238.658 241.576 235.609 241.199 233.224 241.034C230.838 240.87 228.105 240.608 227.151 240.451C223.886 239.917 218.79 239.554 211.337 239.325C204.774 239.122 198.397 238.637 188.978 237.624C187.459 237.46 185.348 237.257 184.285 237.172C183.222 237.088 180.489 236.859 178.212 236.664C175.935 236.469 172.084 236.158 169.656 235.972C167.227 235.786 165.115 235.558 164.963 235.464C164.811 235.371 163.273 235.144 161.546 234.96C159.82 234.777 158.043 234.487 157.598 234.316C157.153 234.146 154.591 233.932 151.904 233.841C144.525 233.593 144.535 233.595 144.535 232.702C144.535 232.247 144.272 231.874 143.951 231.874C143.629 231.874 143.545 232.165 143.765 232.52C144.037 232.96 143.857 233.048 143.2 232.796C142.67 232.593 141.689 232.426 141.019 232.426C140.197 232.426 139.774 232.067 139.718 231.322C139.619 230.002 139.918 229.939 141.026 231.046C142.181 232.202 143.474 232.115 143.086 230.908C142.894 230.313 142.954 230.179 143.241 230.559C143.559 230.979 145.114 231.058 148.124 230.807C153.305 230.374 157.216 230.493 164.41 231.303C167.295 231.628 171.021 232.027 172.691 232.19C174.361 232.354 176.018 232.582 176.372 232.698C176.727 232.814 177.161 232.532 177.338 232.071C177.576 231.451 178.1 231.331 179.359 231.607C181.337 232.042 182.608 232.207 187.874 232.714C189.999 232.918 191.887 233.177 192.068 233.289C192.455 233.527 199.84 233.566 209.957 233.384C216.376 233.268 220.902 233.584 224.279 234.384C226.182 234.834 239.493 235.029 239.493 234.606C239.493 234.389 237.816 234.032 235.767 233.812C233.717 233.593 231.543 233.315 230.936 233.196C226.676 232.355 215.267 231.414 206.092 231.145C203.967 231.083 201.965 230.863 201.644 230.658C201.11 230.316 184.205 228.998 183.297 229.227C183.082 229.282 181.042 229.153 178.764 228.94C175.243 228.612 166.252 227.951 163.996 227.855C163.18 227.82 163.084 227.108 163.833 226.645C164.37 226.313 168.532 226.236 172.298 226.489C173.448 226.566 174.59 226.956 174.837 227.356C175.171 227.897 176.12 227.987 178.543 227.709C180.335 227.503 181.967 227.236 182.17 227.115C182.373 226.994 182.917 227.272 183.377 227.733C183.838 228.193 184.346 228.357 184.507 228.097C184.819 227.593 195.962 227.808 199.191 228.38C200.254 228.569 202.127 228.774 203.354 228.837C204.581 228.9 206.134 229.245 206.805 229.604C207.78 230.126 208.025 230.109 208.025 229.519C208.025 229.086 208.763 228.723 209.819 228.638C214.184 228.285 220.294 228.319 225.139 228.721C228.624 229.011 230.111 228.975 229.572 228.613C227.395 227.156 231.478 226.437 237.837 227.158C243.474 227.798 244.482 227.831 246.918 227.462C248.175 227.271 249.938 227.312 250.835 227.552C253.199 228.186 265.489 229.308 270.962 229.389C273.543 229.428 277.269 229.63 279.243 229.837C281.217 230.045 285.192 230.342 288.076 230.498C290.961 230.654 297.793 231.147 303.259 231.593C308.724 232.039 316.854 232.572 321.324 232.776C328.61 233.108 329.489 233.051 329.805 232.227C330.106 231.443 331.066 231.311 336.307 231.331C339.689 231.344 343.574 231.153 344.941 230.907L347.425 230.459L343.285 229.844C341.007 229.505 338.274 229.235 337.212 229.243C336.149 229.252 331.801 228.873 327.55 228.403C323.299 227.933 315.225 227.271 309.608 226.932C303.99 226.593 298.841 226.197 298.166 226.051C297.491 225.906 291.901 225.545 285.744 225.25C274.679 224.718 266.926 224.285 261.024 223.867C259.354 223.749 253.625 223.401 248.293 223.093C242.961 222.786 238.241 222.424 237.804 222.288C237.366 222.153 236.512 221.855 235.905 221.625C235.297 221.395 233.845 221.139 232.678 221.054C231.511 220.97 230.268 220.507 229.916 220.025C229.407 219.33 227.969 219.121 222.929 219.007C219.438 218.929 216.333 218.712 216.03 218.525C215.726 218.339 213.614 218.04 211.337 217.862C200.451 217.01 189.568 216.318 184.561 216.16C181.525 216.063 175.065 215.551 170.207 215.021C165.349 214.49 159.138 213.974 156.405 213.873C137.491 213.176 122.384 212.297 114.447 211.433C111.714 211.136 106.924 210.733 103.802 210.538C100.68 210.342 97.9951 209.97 97.8347 209.711C97.6743 209.451 98.365 209.218 99.3699 209.194C100.375 209.169 101.898 209.098 102.755 209.036C103.612 208.974 104.422 209.097 104.554 209.311C104.686 209.525 105.712 209.446 106.834 209.136C107.972 208.822 110.471 208.734 112.488 208.937C114.476 209.138 125.047 209.399 135.978 209.518C146.909 209.637 159.952 209.894 164.962 210.09C173.892 210.44 176.423 210.226 170.565 209.617C168.94 209.448 167.49 209.19 167.343 209.043C166.949 208.649 168.968 207.675 170.643 207.451C172.594 207.19 173.21 206.49 171.541 206.43C170.807 206.404 166.977 206.151 163.03 205.868C159.083 205.585 151.319 205.207 145.777 205.027C136.668 204.732 135.702 204.608 135.702 203.733C135.702 202.519 133.479 202.232 120.085 201.716C114.684 201.507 110.135 201.127 109.977 200.871C109.818 200.615 108.6 200.405 107.27 200.405C102.734 200.405 104.005 198.881 109.577 197.639C111.149 197.288 113.261 197.047 114.269 197.103C120.993 197.476 119.23 196.389 111.686 195.511C108.65 195.158 104.426 194.748 102.301 194.601C100.175 194.454 96.3246 194.086 93.7436 193.784C91.1626 193.481 85.9454 193.069 82.1498 192.869C77.4759 192.623 75.0707 192.272 74.6968 191.782C74.3909 191.381 72.4212 190.898 70.2801 190.699C68.1546 190.501 66.1671 190.036 65.8634 189.665C65.5598 189.295 63.497 188.824 61.2793 188.619C59.0616 188.414 56.6903 187.881 56.0097 187.435C55.2297 186.924 52.8421 186.535 49.5523 186.382C42.4589 186.052 36.9012 185.429 36.5931 184.931C36.2694 184.407 41.1036 183.659 41.8463 184.118C42.1509 184.306 42.4 184.225 42.4 183.937C42.4 183.649 41.5304 183.25 40.4677 183.051C38.3695 182.658 37.9728 181.971 39.5015 181.378C41.3055 180.679 38.7809 179.571 33.1052 178.572C28.3381 177.732 25.3255 176.695 27.5214 176.649C29.5853 176.606 26.399 175.633 23.0822 175.293C21.1131 175.092 19.2132 174.687 18.8603 174.394C18.5074 174.101 16.6474 173.609 14.727 173.299C9.391 172.44 9.44876 171.75 14.8922 171.322C16.926 171.162 18.7854 170.688 19.3446 170.188C20.1291 169.486 21.0884 169.402 24.5893 169.729C31.7081 170.393 33.1175 170.264 34.1859 168.848C34.7088 168.154 35.029 167.414 34.8978 167.201C34.7665 166.989 32.9848 166.641 30.9384 166.429C28.892 166.216 26.9692 165.847 26.6655 165.609C26.3619 165.37 24.9335 165 23.4912 164.785C19.5329 164.196 20.3452 163.416 24.9173 163.416C27.1441 163.416 29.154 163.229 29.3839 163.002C29.6137 162.774 31.9295 162.588 34.5299 162.588C37.8179 162.588 39.33 162.378 39.4946 161.898C39.657 161.425 39.0655 161.207 37.6152 161.204C36.4512 161.203 34.6294 160.973 33.5667 160.695C32.5039 160.416 29.5315 160.031 26.9613 159.839C24.3911 159.647 22.008 159.257 21.6656 158.973C21.3233 158.689 20.8984 158.601 20.7215 158.778C20.5446 158.955 19.8221 158.894 19.116 158.641C18.1248 158.287 18.713 158.103 21.6968 157.831C25.2179 157.511 29.2339 156.705 31.3583 155.893C32.7064 155.377 30.6099 154.811 24.3193 153.991C21.207 153.585 18.6605 153.105 18.6605 152.925C18.6605 152.745 17.0455 152.701 15.0718 152.826C12.1879 153.01 11.4833 152.896 11.4833 152.248C11.4833 151.247 13.2308 149.611 14.2873 149.622C14.9364 149.629 14.9287 149.723 14.2442 150.166C13.5395 150.621 13.5627 150.702 14.3996 150.709C14.9405 150.714 15.5311 150.332 15.7119 149.861C15.992 149.131 16.9902 149.047 22.4576 149.293C29.3088 149.601 30.9927 149.236 29.7305 147.715C27.6165 145.168 18.9957 142.437 13.0695 142.437C9.48913 142.437 7.61921 141.767 7.61921 140.485C7.61921 139.843 8.5025 139.679 11.8979 139.689C14.2512 139.696 17.1702 139.964 18.3848 140.284C19.5994 140.604 25.3221 140.978 31.1019 141.116C41.3229 141.359 41.6132 141.335 41.6945 140.256C41.7745 139.194 41.1005 138.429 39.916 138.238C39.6123 138.189 37.2306 137.746 34.6232 137.255C26.0901 135.647 18.5136 134.668 10.759 134.17C3.57448 133.709 1.12425 133.077 1.86665 131.876C2.03615 131.601 2.41214 131.524 2.70234 131.703C2.99254 131.882 3.1617 131.7 3.0782 131.298C2.9942 130.894 3.35569 130.601 3.88679 130.643C4.41489 130.684 4.72764 130.525 4.58174 130.289C4.43574 130.053 5.1597 129.702 6.1905 129.508C8.4185 129.09 8.94684 128.095 7.80574 126.466C7.19764 125.598 7.1328 125.08 7.5666 124.558C8.278 123.7 7.81335 123.114 6.42305 123.114C5.86635 123.114 5.41096 123.01 5.41096 122.883C5.41096 122.756 5.24611 122.222 5.04451 121.697C4.70781 120.82 5.07849 120.772 9.59919 121.108C12.3058 121.309 15.4519 121.622 16.5906 121.802C18.2382 122.063 18.661 121.955 18.661 121.269C18.661 120.796 19.0614 120.184 19.5509 119.91C20.8147 119.203 20.0559 116.022 18.4709 115.383C17.3377 114.926 17.3334 114.899 18.3848 114.829C19.489 114.755 19.489 114.755 18.3848 114.28C17.3078 113.818 18.8123 113.62 24.4577 113.482C26.8126 113.425 28.5985 112.681 28.5985 111.759C28.5985 111.266 29.1705 110.965 30.1167 110.96C30.9517 110.955 32.1997 110.802 32.89 110.617C34.0671 110.301 34.0843 110.234 33.166 109.538C32.6276 109.129 31.5073 108.787 30.6766 108.777C29.846 108.767 27.5273 107.89 25.524 106.827C23.5035 105.755 21.0778 104.895 20.0762 104.895C16.7305 104.895 11.5119 104.192 11.769 103.776C11.9093 103.549 11.6015 103.398 11.085 103.439C10.5685 103.481 10.0574 103.087 9.94917 102.564C9.69787 101.349 12.9577 99.2546 14.6391 99.5506C15.3117 99.669 15.9523 99.4948 16.0627 99.1636C16.323 98.3826 22.7662 98.1618 25.3433 98.8456C26.4377 99.1359 32.0898 99.4408 37.9033 99.5231C47.7318 99.6622 50.6299 99.3804 46.9552 98.6428C46.1201 98.4752 44.3189 98.0851 42.9525 97.776C41.5861 97.4669 39.4123 97.2032 38.1218 97.19C36.8313 97.1767 35.7755 96.9175 35.7755 96.6139C35.7755 96.3102 35.3864 96.0618 34.911 96.0618C34.4356 96.0618 33.5365 95.7888 32.9133 95.4552C31.7922 94.8553 31.7943 94.8416 33.0877 94.1968C35.3525 93.0676 34.6506 92.0024 30.8444 90.7922C28.8915 90.1712 27.1774 89.3017 27.0352 88.8599C26.893 88.4181 26.5569 87.9125 26.2885 87.7364C25.4441 87.1823 26.455 85.479 27.4107 85.8457C27.8936 86.0311 28.1363 86.0303 27.95 85.8437C27.7637 85.6574 28.2376 84.8788 29.0031 84.1134C30.0098 83.1067 31.048 82.6965 32.7573 82.6304C34.0569 82.5801 35.0197 82.3765 34.8969 82.1779C34.7742 81.9793 37.0515 81.9386 39.9575 82.0874C44.1823 82.3037 45.4267 82.1902 46.1671 81.521C47.1953 80.5917 52.6172 80.2086 55.4455 80.8654C56.5254 81.1162 57.3135 81.0388 57.5484 80.6589C57.7549 80.3246 58.5101 80.0512 59.2265 80.0512C60.8874 80.0512 62.2755 79.5216 62.2755 78.8879C62.2755 78.6168 61.9151 78.3949 61.4747 78.3949C61.0344 78.3949 60.4633 78.0182 60.2056 77.5578C59.915 77.0384 57.7568 76.3354 54.5194 75.7055C48.1408 74.4645 43.4452 72.5672 43.8892 71.4102C44.0597 70.9658 44.5528 70.7379 44.9848 70.9037C45.4169 71.0695 45.6315 70.9805 45.4619 70.7062C45.2922 70.4317 45.8047 69.4331 46.6008 68.4871C47.6662 67.221 48.3411 66.86 49.158 67.1193C49.7731 67.3145 50.1294 67.2474 49.9572 66.9688C49.7863 66.6922 50.5104 66.4415 51.5665 66.4115C52.6226 66.3816 55.2305 65.9298 57.3618 65.4075L61.237 64.4578L60.0037 63.1452C59.3255 62.4232 58.5408 61.8324 58.26 61.8324C57.9793 61.8324 56.897 61.4279 55.8549 60.9334C54.038 60.0712 53.9947 59.9817 54.7992 58.7538C55.3279 57.947 55.4329 57.3465 55.0833 57.1304C54.778 56.9417 54.6876 56.5296 54.8823 56.2145C55.1108 55.8449 55.4078 55.9075 55.7195 56.3907C56.0329 56.8767 56.3479 56.9419 56.6166 56.5764C56.8443 56.2666 57.776 55.6537 58.6869 55.2144L60.3432 54.4156L58.5958 54.228C56.7039 54.0248 55.6926 52.6081 57.0638 52.0819C57.5272 51.9041 58.0438 51.8958 58.2116 52.0637C58.3794 52.2315 59.3436 51.9043 60.3543 51.3366C61.3651 50.7689 63.1362 50.1273 64.2902 49.9108C65.4442 49.6943 66.7229 49.1827 67.1317 48.7738C68.1003 47.8054 68.4793 47.8267 73.6091 49.1387C78.213 50.3161 79.5106 50.2064 81.3996 48.4799C82.4651 47.506 82.8951 47.458 85.7796 47.9912C89.5635 48.6907 96.6919 48.7803 96.2858 48.1233C96.1297 47.8707 94.1897 47.355 91.9746 46.9773C86.3312 46.015 85.6961 45.8083 86.6228 45.2355C88.2292 44.2427 81.0361 41.8991 74.0062 41.1249C72.1079 40.9158 70.4343 40.5499 70.2872 40.3118C70.14 40.0737 70.5407 39.2166 71.1775 38.407C72.247 37.0473 72.2675 36.86 71.446 35.9523C70.9569 35.4118 70.5567 34.8337 70.5567 34.6676C70.5567 33.9853 79.9053 34.9671 82.9785 35.9721C87.3978 37.4174 96.3461 38.4722 97.173 37.6453C97.6102 37.208 97.6142 36.8325 97.1867 36.3173C96.6094 35.6217 95.7241 35.3241 88.3615 33.3512C86.0654 32.736 84.911 32.1484 84.911 31.5951C84.911 30.8958 85.5624 30.8226 89.0072 31.1348C91.6316 31.3726 93.2303 31.3008 93.4565 30.9349C93.6506 30.6208 93.5053 30.3638 93.1328 30.3638C92.7606 30.3638 92.5847 30.2352 92.7418 30.078C93.112 29.7079 100.931 31.3488 101.708 31.9597C102.32 32.4401 110.381 33.6818 112.101 33.5605C112.632 33.523 113.067 33.1813 113.067 32.8013C113.067 32.4213 113.196 31.7755 113.353 31.3662C113.624 30.6591 106.882 29.2297 95.2636 27.531C93.5182 27.2758 91.1898 26.6908 90.0893 26.231C88.9889 25.7713 87.3115 25.3937 86.3618 25.392C83.8614 25.387 80.2702 24.2941 80.8504 23.7139C81.1191 23.4452 84.4812 23.1546 88.3218 23.068C92.1624 22.9815 95.2634 22.8685 95.2129 22.817C95.1626 22.7655 93.8935 22.2411 92.3931 21.6517C89.78 20.6253 89.7176 20.552 90.9116 19.9129C91.8468 19.4124 92.846 19.3932 94.9107 19.8361C98.2708 20.5567 98.713 20.5663 98.713 19.9182C98.713 19.6387 97.9706 19.2469 97.0631 19.0476C94.0451 18.3848 94.6987 17.666 98.3195 17.666C100.427 17.666 102.558 17.3158 103.593 16.7995C104.64 16.2769 105.815 16.0868 106.552 16.3206C108.127 16.8205 134.048 17.0111 133.745 16.5206C133.103 15.4815 140.345 15.4868 146.525 16.5306C159.04 18.6433 169.688 19.8441 176.557 19.9176C180.352 19.9582 186.066 20.3328 189.254 20.7501C192.443 21.1673 198.123 21.7648 201.877 22.0779C205.63 22.391 208.86 22.7427 209.054 22.8595C209.247 22.9762 211.269 23.2304 213.546 23.4242C215.823 23.6181 218.556 23.8818 219.619 24.0102C221.831 24.2776 231.904 24.8392 239.218 25.103C244.508 25.2938 252.548 25.8016 257.989 26.2887C259.81 26.4518 266.891 26.6911 273.723 26.8206C280.555 26.9502 288.629 27.2597 291.666 27.5086C294.702 27.7575 303.1 27.9364 310.327 27.9062C321.258 27.8606 323.557 27.7144 323.991 27.0376C324.435 26.3472 324.59 26.3406 325.011 26.9942C325.341 27.5073 326.052 27.6555 327.139 27.4381C328.038 27.2582 329.041 27.3829 329.374 27.7161C329.707 28.0485 330.799 28.3728 331.801 28.4368C332.804 28.5009 334.121 28.7004 334.728 28.8802C338.037 29.8599 341.484 30.1448 342.872 29.5533C343.987 29.0785 346.77 29.6394 346.385 30.2615C346.244 30.4906 348.904 30.7449 352.298 30.8265C361.436 31.0463 362.383 31.1467 363.417 32.005C364.258 32.7027 364.342 32.6706 364.175 31.715C364.049 30.9867 364.255 30.7037 364.816 30.8367C365.272 30.9445 366.204 31.0377 366.887 31.0437C367.57 31.0497 368.129 31.2454 368.129 31.4786C368.129 31.7118 368.529 32.0562 369.019 32.244C369.665 32.4919 369.817 32.349 369.577 31.7223C369.349 31.1276 369.458 30.9944 369.93 31.2937C370.306 31.5327 372.973 31.8062 375.858 31.9016C381.925 32.1021 381.023 32.0995 409.535 31.999C421.529 31.9567 432.878 32.1015 434.756 32.3208C436.633 32.5401 438.587 32.5592 439.097 32.3634C440.037 32.0028 458.072 31.2909 463.613 31.3956C467.947 31.4775 472.861 28.93 470.128 28.0188C469.72 27.883 470.002 27.4923 470.818 27.062C471.576 26.6621 472.334 26.1251 472.503 25.8688C473.112 24.9424 477.8 24.4256 479.131 25.138C479.97 25.587 482.193 25.7482 485.689 25.6137C488.597 25.5017 498.151 25.279 506.919 25.1188C515.687 24.9586 523.464 24.6761 524.201 24.4911C524.939 24.306 528.073 24.1166 531.166 24.0701C534.259 24.0236 537.287 23.7063 537.894 23.365C538.981 22.7544 544.101 21.752 544.958 21.9821C546.014 22.2657 547.976 22.1944 549.764 21.8074C550.827 21.5774 552.193 21.4309 552.8 21.4818C553.408 21.5327 554.401 21.6181 555.009 21.6717C555.616 21.7252 558.473 21.4773 561.358 21.1207C564.242 20.7641 567.677 20.4775 568.989 20.4838C570.302 20.4898 571.668 20.2602 572.026 19.9729C572.383 19.6856 573.483 19.2779 574.47 19.0669C575.938 18.7529 576.264 18.8528 576.264 19.6175C576.264 20.4452 576.721 20.5072 580.267 20.1611C582.468 19.9462 588.244 19.7131 593.102 19.6431C597.961 19.5731 603.274 19.224 604.91 18.8674C606.545 18.5107 608.004 18.2189 608.152 18.2189C608.299 18.2189 608.111 17.8462 607.733 17.3907C607.355 16.9353 606.206 16.5626 605.181 16.5626C604.155 16.5626 603.316 16.4587 603.316 16.3318C603.316 16.2048 603.165 15.7079 602.981 15.2276C602.521 14.0299 604.076 14.0888 605.302 15.3156C605.997 16.0106 606.327 16.0861 606.493 15.5882C606.619 15.2095 606.95 15.04 607.228 15.2116C607.505 15.3831 607.733 15.3226 607.733 15.0769C607.733 14.8312 608.291 14.5998 608.975 14.5626C609.658 14.5254 613.447 14.2137 617.394 13.8701C621.341 13.5264 629.291 13.1457 635.061 13.0241C640.83 12.9025 646.171 12.6668 646.93 12.5003C649.502 11.9362 663.644 10.6281 671.222 10.2533C685.264 9.55879 695.91 7.55046 698.105 5.18186C698.791 4.44095 700.001 3.84273 700.87 3.81449C708.014 3.58233 717.935 2.8383 722.29 2.20817C724.111 1.9445 727.307 1.57643 729.392 1.39024C731.476 1.20404 734.429 0.815107 735.954 0.525917C737.479 0.236737 738.817 9.9237e-05 738.927 9.92466e-05C739.038 9.92563e-05 739.128 0.634935 739.128 1.41196ZM739.128 6.43516C739.128 7.03909 739.372 7.08425 740.211 6.6352C740.859 6.2887 741.166 5.71963 740.975 5.22147C740.729 4.57898 740.48 4.53309 739.892 5.02146C739.472 5.37003 739.128 6.00618 739.128 6.43516ZM646.102 14.6464C643.942 15.4211 643.997 15.4325 648.586 15.1633C659.097 14.547 662.388 14.2348 662.388 13.8541C662.388 13.1339 648.425 13.8132 646.102 14.6464ZM902.544 21.3134C902.544 21.4328 902.917 21.5304 903.372 21.5304C903.828 21.5304 904.2 21.2898 904.2 20.9957C904.2 20.7015 903.828 20.6039 903.372 20.7787C902.917 20.9535 902.544 21.1941 902.544 21.3134ZM862.518 23.1867C862.325 23.4985 862.778 23.7387 863.557 23.7387C864.316 23.7387 865.091 23.4903 865.279 23.1867C865.471 22.8748 865.019 22.6346 864.24 22.6346C863.48 22.6346 862.706 22.883 862.518 23.1867ZM888.742 26.0114C888.742 26.5811 889.403 26.6345 890.629 26.1641C892.015 25.6324 891.643 24.9692 890.122 25.2599C889.363 25.405 888.742 25.7432 888.742 26.0114ZM576.354 26.1013C574.47 26.626 574.212 26.8276 575.14 27.0476C576.613 27.3968 594.178 26.6589 603.592 25.8524C606.15 25.6333 586.395 25.0982 582.337 25.2767C580.363 25.3635 577.671 25.7346 576.354 26.1013ZM557.217 27.8004C556.61 27.9441 557.728 28.0414 559.701 28.0166C564.412 27.9575 566.277 27.4504 563.29 27.0406C562.075 26.874 560.46 26.918 559.701 27.1384C558.942 27.3588 557.824 27.6567 557.217 27.8004ZM909.538 27.6382C908.401 27.6714 908.409 27.7002 909.685 28.2102C911.19 28.8116 912.482 28.5121 912.482 27.5615C912.482 27.2152 912.089 27.0835 911.608 27.2681C911.128 27.4524 910.196 27.619 909.538 27.6382ZM548.923 28.2597C548.776 28.4073 549.758 28.5699 551.107 28.6209C552.456 28.6719 553.731 28.4359 553.941 28.0964C554.209 27.6626 553.56 27.5553 551.757 27.7352C550.346 27.876 549.071 28.112 548.923 28.2597ZM117.208 34.7802C116.996 35.1221 117.877 35.3074 119.521 35.267C121.878 35.209 121.99 35.1544 120.52 34.7802C118.104 34.1655 117.587 34.1655 117.208 34.7802ZM968.138 42.8866C968.537 43.046 969.013 43.0265 969.196 42.843C969.38 42.6595 969.054 42.529 968.472 42.553C967.829 42.5795 967.698 42.7103 968.138 42.8866ZM961.617 43.6136C960.507 43.9689 960.453 44.0588 961.341 44.0718C961.948 44.0808 962.942 43.8746 963.549 43.6136C964.956 43.0091 963.505 43.0091 961.617 43.6136ZM954.209 43.3966C953.729 43.581 953.336 44.1784 953.336 44.7243C953.336 45.57 953.683 45.6735 955.682 45.4236C958.219 45.1065 959.874 44.1657 957.895 44.1657C957.245 44.1657 956.56 43.9173 956.372 43.6136C955.979 42.9781 955.44 42.9241 954.209 43.3966ZM57.3067 52.9989C57.3067 53.3026 57.7414 53.5472 58.2728 53.5426C59.0984 53.5356 59.1186 53.4563 58.4108 52.9989C57.3689 52.3256 57.3067 52.3256 57.3067 52.9989ZM940.534 75.4594C940.933 75.6189 941.409 75.5993 941.592 75.4158C941.776 75.2323 941.45 75.1019 940.868 75.1258C940.225 75.1524 940.094 75.2832 940.534 75.4594ZM945.054 77.0702C945.054 77.97 946.59 78.0712 948.607 77.3043C950.803 76.4694 950.282 75.8819 947.539 76.1C945.872 76.2326 945.054 76.5519 945.054 77.0702ZM934.8 76.6719C935.351 77.5638 937.325 77.7913 937.325 76.9629C937.325 76.4979 936.758 76.1864 935.912 76.1864C935.135 76.1864 934.635 76.4049 934.8 76.6719ZM938.982 77.2906C938.366 77.6887 938.684 77.8279 940.224 77.8342C941.362 77.8392 942.294 77.5942 942.294 77.2906C942.294 76.5874 940.07 76.5874 938.982 77.2906ZM18.661 141.884C18.661 142.188 18.9094 142.436 19.2131 142.436C19.5167 142.436 19.7651 142.188 19.7651 141.884C19.7651 141.58 19.5167 141.332 19.2131 141.332C18.9094 141.332 18.661 141.58 18.661 141.884ZM14.6584 152.187C15.0379 152.34 15.6589 152.34 16.0384 152.187C16.418 152.034 16.1075 151.909 15.3485 151.909C14.5893 151.909 14.2788 152.034 14.6584 152.187ZM22.9395 158.836C23.6227 158.968 24.7407 158.968 25.4239 158.836C26.1071 158.705 25.5481 158.597 24.1817 158.597C22.8153 158.597 22.2563 158.705 22.9395 158.836ZM48.4733 163.293C48.4733 163.529 50.5229 164.017 53.028 164.377C55.5331 164.738 58.1805 165.204 58.9112 165.415C59.7362 165.653 60.1118 165.591 59.9021 165.251C59.7164 164.951 57.3796 164.389 54.7091 164.003C52.0385 163.616 49.6052 163.222 49.3015 163.125C48.9979 163.029 48.6872 162.931 48.6113 162.907C48.5353 162.883 48.4733 163.057 48.4733 163.293ZM853.685 168.384C852.699 168.808 852.74 168.863 854.066 168.897C854.883 168.919 855.706 168.688 855.893 168.384C856.301 167.725 855.219 167.725 853.685 168.384ZM52.3379 171.619C52.3379 171.879 54.8312 172.376 57.8785 172.723C64.7424 173.503 65.975 173.519 65.2732 172.817C64.9787 172.523 62.0098 172.061 58.6758 171.79C55.3417 171.52 52.5518 171.264 52.4759 171.222C52.4 171.179 52.3379 171.358 52.3379 171.619ZM884.658 178.23C884.502 178.483 884.736 178.69 885.178 178.69C885.62 178.69 885.982 178.483 885.982 178.23C885.982 177.977 885.748 177.769 885.462 177.769C885.176 177.769 884.815 177.977 884.658 178.23ZM810.795 179.251C811.194 179.41 811.67 179.391 811.853 179.207C812.037 179.024 811.711 178.893 811.129 178.917C810.485 178.944 810.355 179.075 810.795 179.251ZM896.471 179.978C896.471 180.281 896.906 180.526 897.437 180.521C898.263 180.514 898.283 180.435 897.575 179.978C896.533 179.305 896.471 179.305 896.471 179.978ZM894.263 180.839C894.263 180.972 894.511 181.082 894.815 181.082C895.119 181.082 895.367 180.819 895.367 180.497C895.367 180.176 895.119 180.066 894.815 180.254C894.511 180.442 894.263 180.705 894.263 180.839ZM862.794 184.682C862.035 184.895 859.675 185.276 857.549 185.529C855.424 185.782 852.815 186.252 851.753 186.573C850.69 186.894 849.82 187.136 849.82 187.111C849.82 186.899 846.039 188.081 844.161 188.879C841.313 190.089 841.133 191.019 843.747 191.019C845.097 191.019 845.68 191.269 845.68 191.848C845.68 192.697 843.209 193.032 839.107 192.74C837.32 192.613 832.222 193.565 831.055 194.243C830.183 194.75 832.969 195.321 836.604 195.381C838.968 195.42 840.983 195.031 843.471 194.056C845.408 193.297 847.505 192.672 848.131 192.667C849.037 192.66 849.105 192.556 848.466 192.152C848.025 191.873 847.466 191.767 847.224 191.917C846.982 192.066 846.784 191.954 846.784 191.667C846.784 191.172 847.992 190.823 852.209 190.1C853.219 189.926 854.18 189.435 854.344 189.008C854.588 188.373 854.8 188.359 855.509 188.935C856.235 189.525 856.323 189.498 856.051 188.769C855.813 188.133 856.045 187.924 856.914 187.992C857.567 188.042 858.926 187.858 859.933 187.583C861.204 187.236 862.008 187.283 862.556 187.738C863 188.107 863.346 188.156 863.346 187.85C863.346 187.241 867.553 185.499 869.024 185.499C869.545 185.499 869.971 185.159 869.971 184.744C869.971 184.182 869.231 184.028 867.073 184.143C865.479 184.227 863.553 184.47 862.794 184.682ZM840.083 204.704C840.482 204.837 841.07 204.683 841.391 204.362C841.801 203.953 841.585 203.881 840.667 204.121C839.92 204.316 839.67 204.567 840.083 204.704ZM173.245 206.892C173.245 207.119 174 207.359 174.921 207.423C175.88 207.49 176.456 207.313 176.268 207.009C175.883 206.386 173.243 206.284 173.245 206.892ZM838.503 210.37L837.122 210.412L838.41 210.928C839.865 211.512 842.367 211.062 842.367 210.218C842.367 209.91 841.812 209.81 841.125 209.994C840.442 210.177 839.262 210.346 838.503 210.37ZM177.661 210.25C177.661 210.503 178.033 210.71 178.489 210.71C178.944 210.71 179.317 210.503 179.317 210.25C179.317 209.997 178.944 209.79 178.489 209.79C178.033 209.79 177.661 209.997 177.661 210.25ZM175.349 210.167C175.747 210.327 176.223 210.307 176.407 210.124C176.59 209.94 176.264 209.81 175.682 209.834C175.039 209.86 174.908 209.991 175.349 210.167ZM829.014 211.272C829.412 211.431 829.888 211.411 830.072 211.228C830.255 211.045 829.929 210.914 829.347 210.938C828.704 210.964 828.573 211.095 829.014 211.272ZM890.95 211.999C890.95 212.302 891.199 212.551 891.502 212.551C891.806 212.551 892.055 212.302 892.055 211.999C892.055 211.695 891.806 211.447 891.502 211.447C891.199 211.447 890.95 211.695 890.95 211.999ZM876.596 213.446C876.596 214.065 877.633 213.523 877.93 212.749C878.221 211.991 878.14 211.957 877.437 212.54C876.975 212.924 876.596 213.332 876.596 213.446ZM871.075 213.379C871.075 213.834 871.173 214.207 871.292 214.207C871.412 214.207 871.652 213.834 871.827 213.379C872.002 212.923 871.904 212.551 871.61 212.551C871.316 212.551 871.075 212.923 871.075 213.379ZM148.297 232.251C148.695 232.41 149.171 232.39 149.355 232.207C149.538 232.024 149.212 231.893 148.63 231.917C147.987 231.944 147.856 232.074 148.297 232.251ZM656.615 243.429C656.44 243.712 656.524 244.083 656.801 244.254C657.078 244.425 657.446 244.194 657.621 243.74C657.964 242.846 657.134 242.589 656.615 243.429ZM918.664 6.4862C918.982 6.86575 919.025 7.18385 918.76 7.19308C918.495 7.20208 918.743 7.47977 919.311 7.80965C920.767 8.65591 919.477 9.38134 916.622 9.32113C915.131 9.28973 914.773 9.15792 915.518 8.91552C916.57 8.57348 917.354 7.16799 916.484 7.18383C914.863 7.21343 913.692 7.93491 913.945 8.74889C914.192 9.54363 914.126 9.53666 913.432 8.69451C912.489 7.55007 908.288 7.33948 907.925 8.41845C907.74 8.96651 907.516 8.9628 906.834 8.40026C905.759 7.51345 905.125 5.35868 906.038 5.69543C906.394 5.82663 906.604 6.26861 906.506 6.6776C906.381 7.19764 906.634 7.14321 907.349 6.49657C908.165 5.7582 909.349 5.59451 913.228 5.68395C916.313 5.75505 918.297 6.04795 918.664 6.4862ZM926.243 7.70306C926.978 8.15758 926.624 9.38461 925.758 9.38461C925.128 9.38461 924.575 7.82567 925.092 7.50643C925.321 7.36491 925.839 7.45343 926.243 7.70306ZM914.562 12.145C915.172 13.1228 915.109 13.2588 914.004 13.3333C913.319 13.3795 912.385 13.4579 911.929 13.5075C910.457 13.6679 910.18 13.1635 911.151 12.0902C912.378 10.7344 913.694 10.7555 914.562 12.145ZM580.128 16.253C580.128 16.3869 579.88 16.65 579.576 16.8377C579.273 17.0254 579.024 16.9158 579.024 16.5942C579.024 16.2727 579.273 16.0095 579.576 16.0095C579.88 16.0095 580.128 16.1191 580.128 16.253ZM573.651 16.6302C573.276 17.0074 572.831 17.1771 572.661 17.0071C572.491 16.8371 572.797 16.5284 573.341 16.3211C574.128 16.0215 574.192 16.0849 573.651 16.6302ZM869.971 18.1503C869.971 18.4168 869.588 18.9528 869.12 19.3415C868.458 19.8909 868.121 19.9008 867.606 19.3861C867.091 18.8714 867.127 18.6081 867.768 18.2034C868.809 17.5452 869.971 17.5171 869.971 18.1503ZM246.671 23.1866C246.671 23.4903 246.313 23.7387 245.875 23.7387C245.438 23.7387 244.926 23.4903 244.738 23.1866C244.551 22.883 244.909 22.6345 245.534 22.6345C246.159 22.6345 246.671 22.883 246.671 23.1866ZM256.056 23.773C256.056 24.4015 254.573 24.4654 254.195 23.8533C254.046 23.6127 254.404 23.3797 254.99 23.3355C255.577 23.2913 256.056 23.4882 256.056 23.773ZM803.559 24.6639C804.056 25.9586 803.299 26.1485 801.391 25.208C800.395 24.7174 799.829 24.2786 800.133 24.2329C802.46 23.883 803.3 23.9887 803.559 24.6639ZM326.171 25.947C326.171 26.2507 326.061 26.4991 325.927 26.4991C325.793 26.4991 325.53 26.2507 325.342 25.947C325.155 25.6434 325.264 25.3949 325.586 25.3949C325.907 25.3949 326.171 25.6434 326.171 25.947ZM334.13 26.425C334.368 26.8098 334.413 27.2737 334.231 27.456C333.737 27.9501 333.198 27.2234 333.465 26.4228C333.652 25.8618 333.782 25.8614 334.13 26.425ZM332.105 26.3127C333.236 26.7687 332.888 27.524 331.691 27.2111C331.084 27.0523 330.587 26.7029 330.587 26.4347C330.587 25.9084 331.018 25.8738 332.105 26.3127ZM67.4282 29.0754C68.0634 29.7107 67.8302 30.3636 66.9681 30.3636C66.5126 30.3636 66.14 29.991 66.14 29.5355C66.14 28.6734 66.7929 28.4402 67.4282 29.0754ZM752.583 32.4574C752.732 32.698 752.368 32.9315 751.776 32.9761C751.183 33.0207 750.842 32.8239 751.018 32.5386C751.409 31.9057 752.216 31.8638 752.583 32.4574ZM747.607 33.4057C747.433 33.8581 746.883 34.2474 746.384 34.2708C745.885 34.2942 744.359 34.4252 742.992 34.562C741.201 34.7413 740.739 34.6549 741.336 34.2519C742.019 33.7909 742.027 33.6916 741.382 33.6846C740.952 33.6796 740.755 33.5214 740.944 33.3322C741.133 33.1429 742.781 32.897 744.605 32.7857C747.369 32.617 747.87 32.7205 747.607 33.4057ZM972.911 34.7422C973.319 35.4028 972.281 36.0574 971.545 35.6029C970.928 35.2213 971.333 34.2283 972.106 34.2283C972.374 34.2283 972.736 34.4596 972.911 34.7422ZM967.69 49.1019C967.69 49.3876 967.444 49.7732 967.144 49.9587C966.831 50.1521 966.739 49.9305 966.927 49.4392C967.294 48.4828 967.69 48.3078 967.69 49.1019ZM963.641 49.3863C963.641 49.8284 963.43 50.0596 963.172 49.9002C962.914 49.7408 962.846 49.379 963.021 49.0964C963.467 48.374 963.641 48.4554 963.641 49.3863ZM1.54634 121.457C2.00184 121.751 2.12604 121.992 1.82234 121.992C1.51874 121.992 0.897612 121.751 0.442212 121.457C-0.0132875 121.163 -0.137388 120.922 0.166212 120.922C0.469812 120.922 1.09084 121.163 1.54634 121.457ZM908.617 162.429C908.617 162.668 908.12 162.863 907.513 162.863C906.906 162.863 906.409 162.63 906.409 162.346C906.409 162.061 906.906 161.865 907.513 161.911C908.12 161.957 908.617 162.19 908.617 162.429ZM885.498 170.537L886.792 171.585L883.489 172.024C881.671 172.265 878.881 172.476 877.287 172.493C875.693 172.511 874.389 172.694 874.389 172.9C874.388 173.33 871.1 172.474 870.586 171.91C870.4 171.706 871.014 171.684 871.95 171.861C872.999 172.06 874.272 171.857 875.263 171.334C876.148 170.866 878.177 170.459 879.771 170.43C881.365 170.401 882.669 170.177 882.669 169.932C882.669 169.141 884.17 169.462 885.498 170.537ZM892.457 170.374C892.274 170.557 891.797 170.577 891.399 170.418C890.959 170.241 891.089 170.11 891.732 170.084C892.314 170.06 892.641 170.191 892.457 170.374ZM902.501 178C902.524 178.582 902.394 178.908 902.211 178.724C902.027 178.541 902.007 178.065 902.167 177.666C902.343 177.226 902.474 177.356 902.501 178ZM887.423 182.64C887.269 182.889 887.651 183.529 888.272 184.061C889.384 185.013 889.347 185.054 885.986 186.644C881.938 188.558 881.565 188.601 881.565 187.155C881.565 186.475 881.936 186.048 882.531 186.042C883.314 186.035 883.349 185.94 882.716 185.54C882.287 185.268 881.479 185.133 880.922 185.24C880.365 185.348 879.909 185.182 879.909 184.873C879.909 184.563 880.716 184.354 881.703 184.408C882.69 184.462 883.994 184.477 884.601 184.442C885.521 184.388 885.567 184.288 884.877 183.842C884.17 183.385 884.19 183.306 885.015 183.299C885.547 183.294 885.982 183.042 885.982 182.738C885.982 182.435 886.369 182.186 886.842 182.186C887.316 182.186 887.577 182.39 887.423 182.64ZM880.364 187.095C880.919 187.438 880.897 187.668 880.26 188.197C879.367 188.938 878.655 188.29 879.27 187.296C879.489 186.941 879.971 186.852 880.364 187.095ZM899.508 210.342C899.695 210.646 899.476 210.895 899.021 210.895C898.565 210.895 898.039 210.646 897.851 210.342C897.664 210.039 897.883 209.79 898.338 209.79C898.794 209.79 899.32 210.039 899.508 210.342ZM888.2 212.814C887.405 213.772 887.086 213.872 887.086 213.162C887.086 212.891 887.494 212.512 887.992 212.321C888.75 212.03 888.784 212.111 888.2 212.814ZM107.943 221.723C107.296 222.371 103.761 222.878 103.048 222.426C102.637 222.166 102.55 221.924 102.853 221.89C105.825 221.549 108.195 221.472 107.943 221.723ZM111.294 222.405C111.753 222.696 111.41 222.856 110.328 222.856C109.405 222.856 108.65 222.649 108.65 222.396C108.65 221.809 110.364 221.813 111.294 222.405ZM125.489 223.109C127.852 223.638 133.589 224.018 144.31 224.354C147.981 224.469 151.516 224.848 152.165 225.195C152.871 225.573 155.345 225.766 158.326 225.674C161.065 225.59 163.306 225.578 163.306 225.647C163.306 225.84 160.094 227.457 159.713 227.457C159.528 227.457 159.53 227.209 159.718 226.905C159.917 226.583 159.355 226.353 158.37 226.353C157.441 226.353 156.681 226.602 156.681 226.905C156.681 227.209 156.418 227.457 156.097 227.457C155.775 227.457 155.698 227.147 155.926 226.767C156.233 226.257 156.134 226.223 155.545 226.636C155.107 226.944 154.252 227.167 153.645 227.132C153.037 227.097 151.222 227.032 149.61 226.987C147.998 226.942 146.794 226.719 146.935 226.491C147.076 226.263 145.662 226.113 143.793 226.158C141.924 226.203 139.96 226.007 139.429 225.724C138.784 225.381 138.463 225.411 138.463 225.814C138.463 226.146 138.162 226.233 137.795 226.006C137.428 225.779 135.006 225.526 132.412 225.443C129.819 225.36 127.697 225.263 127.697 225.227C127.697 225.191 126.455 225.081 124.936 224.982C123.418 224.884 122.114 224.748 122.038 224.681C121.909 224.566 121.34 224.399 120.382 224.194C119.943 224.1 122.534 222.497 123.004 222.572C123.156 222.596 124.274 222.838 125.489 223.109ZM147.848 225.87C147.848 226.135 148.33 226.353 148.92 226.353C149.509 226.353 150.126 226.135 150.29 225.87C150.454 225.604 149.972 225.387 149.218 225.387C148.465 225.387 147.848 225.604 147.848 225.87ZM118.317 227.466C118.508 227.774 118.895 227.884 119.178 227.709C119.461 227.535 119.692 227.64 119.692 227.944C119.692 229.013 118.801 229.03 118.141 227.973C117.774 227.385 117.586 226.905 117.722 226.905C117.859 226.905 118.127 227.157 118.317 227.466ZM130.136 229.619C130.717 230.201 131.309 230.562 131.45 230.421C131.59 230.281 132.915 230.082 134.394 229.98C136.955 229.804 140.131 230.941 139.326 231.747C138.681 232.391 134.869 232.24 134.036 231.537C133.183 230.817 131.629 230.794 130.934 231.49C130.348 232.076 127.532 231.947 127.142 231.317C126.612 230.459 127.4 228.561 128.286 228.561C128.721 228.561 129.553 229.037 130.136 229.619ZM124.437 229.198C124.672 229.579 124.59 229.687 124.232 229.466C123.902 229.262 123.477 229.348 123.286 229.656C122.772 230.489 122.084 230.336 122.084 229.389C122.084 228.417 123.865 228.272 124.437 229.198ZM769.895 233.311C769.711 233.495 769.235 233.514 768.837 233.355C768.396 233.179 768.527 233.048 769.17 233.021C769.752 232.997 770.078 233.128 769.895 233.311ZM658.524 248.988C658.524 249.292 658.414 249.54 658.28 249.54C658.147 249.54 657.883 249.292 657.696 248.988C657.508 248.684 657.618 248.436 657.939 248.436C658.261 248.436 658.524 248.684 658.524 248.988ZM645.65 248.932C646.542 249.587 646.328 250.528 645.347 250.271C644.721 250.108 644.32 250.333 644.262 250.88C644.211 251.358 644.128 252.121 644.078 252.577C644.027 253.032 643.53 253.436 642.974 253.474C642.417 253.512 641.775 253.594 641.547 253.657C641.32 253.72 640.388 253.971 639.477 254.216C637.451 254.76 636.351 255.574 636.755 256.228C636.922 256.497 636.567 256.717 635.967 256.717C635.367 256.717 634.75 256.407 634.596 256.027C634.402 255.548 634.177 255.518 633.86 255.929C633.05 256.982 631.359 257.311 630.468 256.589C629.752 256.009 629.685 256.024 630.076 256.673C630.435 257.269 630.317 257.368 629.585 257.087C629.055 256.884 628.286 256.717 627.875 256.717C627.465 256.717 626.98 256.246 626.797 255.67C626.583 254.996 626.11 254.715 625.472 254.882C624.063 255.25 624.208 256.616 625.629 256.354C626.752 256.148 626.753 256.155 625.675 256.667C625.068 256.956 623.73 257.209 622.702 257.231C621.674 257.252 619.314 257.513 617.457 257.811C612.645 258.583 600.547 259.935 595.034 260.318C592.453 260.497 589.224 260.742 587.857 260.862C584.979 261.116 579.296 261.519 571.847 261.999C568.962 262.185 564.987 262.474 563.014 262.641C558.27 263.043 550.803 263.073 549.764 262.694C549.308 262.528 547.88 262.202 546.589 261.969C545.299 261.735 544.243 261.362 544.243 261.138C544.243 260.915 544.857 260.118 545.608 259.367C546.719 258.256 547.489 258.013 549.751 258.057C551.403 258.09 552.453 257.885 552.342 257.552C552.24 257.245 550.244 256.973 547.906 256.948C544.234 256.909 541.789 256.194 542.623 255.405C542.997 255.052 550.316 254.703 550.315 255.038C550.314 255.203 551.991 255.259 554.041 255.164C556.091 255.069 559.194 255.217 560.936 255.493C562.678 255.77 564.221 255.878 564.365 255.734C564.509 255.59 565.693 255.419 566.995 255.355C568.297 255.291 570.049 255.047 570.888 254.812C571.795 254.558 572.698 254.621 573.115 254.967C573.5 255.287 576.218 255.607 579.154 255.677C582.788 255.764 584.378 255.994 584.136 256.399C583.941 256.726 584.203 256.651 584.718 256.233C585.363 255.71 586.356 255.585 587.901 255.832C589.376 256.068 590.027 255.997 589.798 255.626C589.407 254.993 589.48 254.981 594.482 254.847C596.456 254.794 598.63 254.555 599.313 254.316C599.996 254.078 600.555 254.085 600.555 254.333C600.555 254.582 601.176 254.785 601.935 254.785C602.695 254.785 603.316 254.598 603.316 254.371C603.316 254.143 603.703 253.957 604.176 253.957C604.65 253.957 604.907 254.166 604.749 254.423C604.366 255.043 610.037 254.132 610.449 253.508C611.202 252.365 621.534 251.206 621.534 252.265C621.534 252.588 621.797 252.852 622.119 252.852C622.441 252.852 622.561 252.621 622.386 252.338C621.887 251.53 623.157 251.033 623.978 251.715C624.53 252.172 624.789 252.144 624.996 251.605C625.174 251.14 626.083 250.927 627.544 251.009C628.794 251.078 629.816 250.904 629.816 250.62C629.816 249.707 632.652 250.307 633.203 251.336C633.496 251.883 633.976 252.183 634.269 252.002C634.562 251.82 634.676 251.467 634.521 251.216C634.365 250.965 634.602 250.62 635.046 250.45C635.49 250.28 636.002 250.382 636.185 250.677C636.387 251.004 637.094 250.892 637.997 250.389C639.695 249.443 644.977 248.437 645.65 248.932ZM653.555 251.44C653.555 252.41 653.224 252.552 652.751 251.787C652.576 251.504 652.685 251.117 652.994 250.926C653.303 250.735 653.555 250.966 653.555 251.44ZM651.475 252.394C651.154 252.714 650.565 252.868 650.167 252.736C649.754 252.598 650.004 252.347 650.75 252.152C651.669 251.912 651.884 251.984 651.475 252.394ZM461.293 253.794C461.976 253.926 462.535 254.223 462.535 254.455C462.535 255.131 460.135 254.763 459.898 254.051C459.779 253.696 459.765 253.439 459.867 253.48C459.968 253.521 460.609 253.663 461.293 253.794ZM472.748 255.061C471.231 255.713 470.359 255.713 471.368 255.061C471.824 254.767 472.569 254.539 473.024 254.556C473.57 254.576 473.476 254.748 472.748 255.061ZM469.404 255.01C469.574 255.285 469.216 255.38 468.608 255.221C467.319 254.884 467.156 254.509 468.299 254.509C468.737 254.509 469.234 254.734 469.404 255.01ZM540.477 256.259C541.346 257.132 540.951 257.193 534.128 257.234C530.126 257.259 526.299 257.385 525.622 257.516C524.945 257.647 524.262 257.545 524.105 257.29C523.947 257.036 523.058 256.88 522.129 256.944C519.617 257.118 519.605 256.314 522.116 256.075C523.304 255.962 524.157 256.06 524.013 256.293C523.56 257.026 524.41 256.754 525.275 255.889C526.214 254.95 528.546 254.781 529.062 255.615C529.289 255.982 529.767 255.974 530.486 255.589C531.708 254.935 532.859 255.38 532.297 256.289C532.051 256.686 532.187 256.724 532.702 256.401C533.128 256.134 534.844 255.783 536.514 255.621C538.904 255.39 539.748 255.526 540.477 256.259ZM496.212 255.613C496.212 255.917 496.102 256.165 495.968 256.165C495.834 256.165 495.571 255.917 495.384 255.613C495.196 255.31 495.306 255.061 495.627 255.061C495.949 255.061 496.212 255.31 496.212 255.613ZM518.295 256.717C518.793 257.039 518.861 257.256 518.466 257.261C518.104 257.266 517.655 257.021 517.467 256.717C517.043 256.032 517.234 256.032 518.295 256.717ZM302.661 256.793C302.375 257.255 304.478 257.799 304.904 257.373C305.498 256.779 307.952 256.667 307.952 257.233C307.952 257.584 309.523 257.668 312.23 257.463C315.55 257.212 316.942 257.341 318.441 258.041C319.504 258.536 319.955 258.828 319.443 258.689C318.931 258.55 318.435 258.652 318.339 258.915C318.244 259.179 317.793 259.476 317.337 259.574C316.882 259.673 316.327 260.002 316.104 260.306C315.88 260.61 315.694 260.314 315.689 259.649C315.681 258.505 315.598 258.482 314.163 259.232C312.801 259.944 312.566 259.926 311.88 259.061C311.153 258.145 311.132 258.145 311.449 259.061C311.706 259.807 311.477 260.028 310.446 260.028C309.712 260.028 308.858 259.593 308.548 259.061C308.236 258.525 307.978 258.402 307.969 258.785C307.951 259.508 306.296 259.782 306.296 259.061C306.296 258.834 304.417 258.662 302.122 258.679C299.826 258.697 297.824 258.511 297.673 258.265C297.521 258.02 296.865 257.819 296.215 257.819C295.269 257.819 295.171 257.681 295.723 257.129C296.414 256.438 303.079 256.113 302.661 256.79L302.661 256.793ZM293.598 256.809C293.598 257.062 293.411 257.286 293.184 257.307C292.956 257.327 291.975 257.448 291.003 257.575C288.819 257.861 288.041 256.914 290.142 256.527C292.22 256.144 293.598 256.257 293.598 256.809ZM333.347 258.65C333.347 258.953 334.279 259.202 335.417 259.202C336.556 259.202 337.671 258.953 337.894 258.65C338.164 258.282 338.303 258.282 338.309 258.65C338.321 259.341 341.629 259.505 341.629 258.814C341.629 258.536 341.855 258.448 342.131 258.618C342.656 258.943 347.513 259.465 352.67 259.751C354.34 259.843 355.707 259.975 355.707 260.043C355.707 260.413 362.971 260.419 363.436 260.049C364.265 259.389 369.785 258.929 369.785 259.519C369.785 259.8 370.158 260.03 370.613 260.03C371.069 260.03 371.441 259.79 371.441 259.497C371.441 259.164 375.33 259.062 381.793 259.225C387.486 259.369 392.744 259.484 393.476 259.481C394.209 259.476 395.637 259.704 396.651 259.984C397.759 260.29 398.493 260.292 398.493 259.989C398.493 259.487 400.424 259.569 400.948 260.092C401.099 260.243 403.611 260.279 406.531 260.171C410.05 260.041 412.102 260.193 412.619 260.622C413.227 261.126 413.401 261.102 413.408 260.512C413.414 260.033 413.566 259.966 413.822 260.331C414.065 260.677 417.206 260.935 421.681 260.976C425.78 261.014 438.202 261.187 449.285 261.361C460.368 261.534 474.591 261.709 480.891 261.75C487.192 261.79 492.348 261.979 492.348 262.169C492.349 262.359 493.716 262.514 495.385 262.514C497.054 262.514 498.42 262.328 498.42 262.1C498.42 261.873 498.683 261.686 499.005 261.686C499.326 261.686 499.436 261.935 499.248 262.238C499.061 262.542 499.294 262.79 499.768 262.79C500.241 262.79 500.628 263.039 500.628 263.342C500.628 263.646 500.892 263.894 501.213 263.894C501.535 263.894 501.644 263.646 501.457 263.342C501.255 263.016 501.863 262.794 502.942 262.799C504.325 262.806 504.568 262.937 503.941 263.342C503.329 263.737 503.304 263.88 503.842 263.886C504.404 263.893 504.382 264.085 503.744 264.722C503.288 265.178 502.401 265.551 501.772 265.551C501.143 265.551 500.628 265.816 500.628 266.14C500.628 266.489 500.151 266.578 499.455 266.357C498.666 266.106 498.405 266.184 498.66 266.596C498.867 266.932 498.89 267.207 498.711 267.207C498.531 267.207 498.196 266.696 497.965 266.071L497.544 264.936L496.089 266.081C495.091 266.866 494.512 267.031 494.249 266.606C493.977 266.165 493.731 266.203 493.403 266.734C493.026 267.343 489.238 267.479 473.182 267.462C462.316 267.451 448.954 267.282 443.488 267.087C438.022 266.892 428.954 266.588 423.337 266.412C403.053 265.777 397.828 265.546 397.373 265.265C396.357 264.637 391.909 264.08 391.235 264.496C390.82 264.753 390.336 264.661 390.089 264.279C389.769 263.786 389.522 263.828 389.116 264.446C388.817 264.902 388.569 265.026 388.564 264.722C388.558 264.374 385.143 264.195 379.308 264.237C370.085 264.304 354.327 263.412 354.326 262.824C354.326 262.654 352.4 262.542 350.047 262.576C346.015 262.635 336.727 261.879 335.08 261.359C334.472 261.167 334.461 260.96 335.02 260.287C335.583 259.608 335.569 259.498 334.944 259.695C334.521 259.828 333.482 260.09 332.635 260.276C331.686 260.484 331.217 260.873 331.413 261.288C331.589 261.659 331.443 261.573 331.089 261.098C330.569 260.399 329.859 260.313 327.38 260.65C325.636 260.886 323.897 260.842 323.346 260.548C322.814 260.263 321.679 259.996 320.824 259.955C319.392 259.885 319.374 259.86 320.601 259.628C321.632 259.434 321.756 259.266 321.153 258.884C320.3 258.344 321.017 258.276 328.793 258.163C331.505 258.124 333.347 258.321 333.347 258.65ZM493.803 263.615C493.977 264.069 494.342 264.303 494.613 264.135C495.393 263.653 495.19 262.79 494.297 262.79C493.804 262.79 493.61 263.114 493.803 263.615ZM526.002 261.728C525.434 262.79 525.467 262.91 526.249 262.61C527.028 262.311 527.063 262.432 526.502 263.481L525.85 264.7L525.301 263.469C524.67 262.057 523.53 261.851 523.064 263.066C522.889 263.522 522.946 263.894 523.189 263.894C523.433 263.894 523.632 264.27 523.632 264.729C523.632 265.408 523.133 265.498 520.963 265.21C519.141 264.968 518.295 265.054 518.295 265.479C518.295 265.826 517.422 266.103 516.33 266.103C515.042 266.103 514.495 265.894 514.741 265.496C515.007 265.064 514.781 265.068 513.957 265.508C512.995 266.023 512.854 265.986 513.122 265.287C513.299 264.825 513.666 264.446 513.937 264.446C514.209 264.446 514.431 264.198 514.431 263.894C514.431 262.744 513.433 263.409 512.774 264.999C512.006 266.853 511.986 266.863 510.602 266.122C509.904 265.749 509.689 265.165 509.879 264.167C510.029 263.385 509.934 262.817 509.669 262.905C509.403 262.994 509.062 262.823 508.91 262.527C508.746 262.208 510.059 261.949 512.122 261.893C515.311 261.808 515.662 261.913 516.213 263.123C516.807 264.427 518.847 264.999 518.847 263.862C518.847 263.54 518.602 263.429 518.301 263.614C517.993 263.805 517.893 263.593 518.071 263.13C518.255 262.649 518.749 262.447 519.259 262.643C519.827 262.861 519.996 262.757 519.743 262.348C519.299 261.629 521.134 261.099 523.264 261.33C524.023 261.412 525.098 261.259 525.652 260.989C526.555 260.549 526.592 260.626 526.002 261.728ZM510.899 263.802C510.742 264.055 510.965 264.262 511.394 264.262C511.823 264.262 512.046 264.055 511.889 263.802C511.733 263.549 511.51 263.342 511.394 263.342C511.278 263.342 511.055 263.549 510.899 263.802ZM533.439 261.623C533.605 261.892 533.246 262.242 532.641 262.4C531.908 262.592 531.653 262.982 531.878 263.567C532.063 264.051 531.982 264.446 531.696 264.446C530.939 264.446 531.061 262.643 531.874 261.831C532.698 261.007 533.03 260.963 533.439 261.623ZM530.053 263.158C529.898 263.563 529.7 263.894 529.613 263.894C529.526 263.894 529.328 263.563 529.172 263.158C529.017 262.753 529.215 262.422 529.613 262.422C530.01 262.422 530.208 262.753 530.053 263.158ZM527.924 264.705C527.335 265.151 526.308 265.523 525.643 265.533C524.326 265.553 523.487 264.715 524.312 264.205C524.594 264.03 524.921 264.173 525.037 264.522C525.196 264.999 525.542 265 526.428 264.527C528.125 263.619 529.193 263.747 527.924 264.706L527.924 264.705ZM535.26 264.78C535.077 264.963 534.6 264.983 534.202 264.824C533.762 264.647 533.892 264.516 534.535 264.49C535.117 264.466 535.444 264.597 535.26 264.78ZM506.149 264.999C506.857 265.456 506.837 265.535 506.011 265.542C505.48 265.547 505.045 265.302 505.045 264.999C505.045 264.325 505.107 264.325 506.149 264.999ZM509.114 265.839C509.377 266.526 509.236 266.573 508.345 266.096C507.065 265.411 506.944 264.999 508.022 264.999C508.445 264.999 508.937 265.377 509.114 265.839Z" fill="#F7E6C4"/>
</svg>
