<svg width="576" height="576" viewBox="0 0 576 576" fill="none" xmlns="http://www.w3.org/2000/svg">
<circle cx="8" cy="8" r="8" fill="#606C5D"/>
<circle cx="88" cy="8" r="8" fill="#606C5D"/>
<circle cx="168" cy="8" r="8" fill="#606C5D"/>
<circle cx="248" cy="8" r="8" fill="#606C5D"/>
<circle cx="328" cy="8" r="8" fill="#606C5D"/>
<circle cx="408" cy="8" r="8" fill="#606C5D"/>
<circle cx="488" cy="8" r="8" fill="#606C5D"/>
<circle cx="568" cy="8" r="8" fill="#606C5D"/>
<circle cx="8" cy="88" r="8" fill="#606C5D"/>
<circle cx="88" cy="88" r="8" fill="#606C5D"/>
<circle cx="168" cy="88" r="8" fill="#606C5D"/>
<circle cx="248" cy="88" r="8" fill="#606C5D"/>
<circle cx="328" cy="88" r="8" fill="#606C5D"/>
<circle cx="408" cy="88" r="8" fill="#606C5D"/>
<circle cx="488" cy="88" r="8" fill="#606C5D"/>
<circle cx="568" cy="88" r="8" fill="#606C5D"/>
<circle cx="8" cy="168" r="8" fill="#606C5D"/>
<circle cx="88" cy="168" r="8" fill="#606C5D"/>
<circle cx="168" cy="168" r="8" fill="#606C5D"/>
<circle cx="248" cy="168" r="8" fill="#606C5D"/>
<circle cx="328" cy="168" r="8" fill="#606C5D"/>
<circle cx="408" cy="168" r="8" fill="#606C5D"/>
<circle cx="488" cy="168" r="8" fill="#606C5D"/>
<circle cx="568" cy="168" r="8" fill="#606C5D"/>
<circle cx="8" cy="248" r="8" fill="#606C5D"/>
<circle cx="88" cy="248" r="8" fill="#606C5D"/>
<circle cx="168" cy="248" r="8" fill="#606C5D"/>
<circle cx="248" cy="248" r="8" fill="#606C5D"/>
<circle cx="328" cy="248" r="8" fill="#606C5D"/>
<circle cx="408" cy="248" r="8" fill="#606C5D"/>
<circle cx="488" cy="248" r="8" fill="#606C5D"/>
<circle cx="568" cy="248" r="8" fill="#606C5D"/>
<circle cx="8" cy="328" r="8" fill="#606C5D"/>
<circle cx="88" cy="328" r="8" fill="#606C5D"/>
<circle cx="168" cy="328" r="8" fill="#606C5D"/>
<circle cx="248" cy="328" r="8" fill="#606C5D"/>
<circle cx="328" cy="328" r="8" fill="#606C5D"/>
<circle cx="408" cy="328" r="8" fill="#606C5D"/>
<circle cx="488" cy="328" r="8" fill="#606C5D"/>
<circle cx="568" cy="328" r="8" fill="#606C5D"/>
<circle cx="8" cy="408" r="8" fill="#606C5D"/>
<circle cx="88" cy="408" r="8" fill="#606C5D"/>
<circle cx="168" cy="408" r="8" fill="#606C5D"/>
<circle cx="248" cy="408" r="8" fill="#606C5D"/>
<circle cx="328" cy="408" r="8" fill="#606C5D"/>
<circle cx="408" cy="408" r="8" fill="#606C5D"/>
<circle cx="488" cy="408" r="8" fill="#606C5D"/>
<circle cx="568" cy="408" r="8" fill="#606C5D"/>
<circle cx="8" cy="488" r="8" fill="#606C5D"/>
<circle cx="88" cy="488" r="8" fill="#606C5D"/>
<circle cx="168" cy="488" r="8" fill="#606C5D"/>
<circle cx="248" cy="488" r="8" fill="#606C5D"/>
<circle cx="328" cy="488" r="8" fill="#606C5D"/>
<circle cx="408" cy="488" r="8" fill="#606C5D"/>
<circle cx="488" cy="488" r="8" fill="#606C5D"/>
<circle cx="568" cy="488" r="8" fill="#606C5D"/>
<circle cx="8" cy="568" r="8" fill="#606C5D"/>
<circle cx="88" cy="568" r="8" fill="#606C5D"/>
<circle cx="168" cy="568" r="8" fill="#606C5D"/>
<circle cx="248" cy="568" r="8" fill="#606C5D"/>
<circle cx="328" cy="568" r="8" fill="#606C5D"/>
<circle cx="408" cy="568" r="8" fill="#606C5D"/>
<circle cx="488" cy="568" r="8" fill="#606C5D"/>
<circle cx="568" cy="568" r="8" fill="#606C5D"/>
</svg>
